<svg xmlns="http://www.w3.org/2000/svg" viewBox="0 0 319.83 302.23"><defs><style>.a{fill:#4c85c5;}.b{fill:#fff;}.c{fill:#f4ae1d;}.d{fill:#a45d26;}</style></defs><title>forget-me-not</title><path class="a" d="M324,128.19a22.2,22.2,0,0,1-13.26-5.94c-10.52-25.67-39.57-40.66-69.23-34.19a63.89,63.89,0,0,0-26.67,12.75A63.89,63.89,0,0,0,221.66,72c0-31.16-22-56.87-50.35-60.68A22.32,22.32,0,0,1,163.15,0a22.2,22.2,0,0,1-8.63,11.69c-27.33,4.8-48.17,30-48.17,60.35A64.07,64.07,0,0,0,111.78,98a64.07,64.07,0,0,0-24-11.26c-30.33-7.18-60.4,8.27-70.65,35A22.32,22.32,0,0,1,4.22,127a22.2,22.2,0,0,1,9.38,11.09c-1.62,27.7,18.08,53.78,47.62,60.78A65.1,65.1,0,0,0,73,200.59,65.09,65.09,0,0,0,65.67,210c-16.91,26.18-12.4,59.69,9.38,78.29a22.32,22.32,0,0,1,.69,14,22.2,22.2,0,0,1,13.59-5.13c25.56,10.79,56.73.94,73.2-24.56.62-1,1.2-1.93,1.77-2.91.57,1,1.16,1.94,1.78,2.9,17.06,26.08,49.51,35.57,75.35,23.22a22.32,22.32,0,0,1,13,5,22.2,22.2,0,0,1,.83-14.51c20.24-19,23.9-51.46,7.28-76.87A65.36,65.36,0,0,0,257,202a65.37,65.37,0,0,0,9.15-1.33c30.45-6.65,50.88-33.59,48.54-62.14A22.32,22.32,0,0,1,324,128.19Zm-125.5-6.93-.16-.13.35-.27Z" transform="translate(-4.22)"/><path class="b" d="M169.39,173.32l64.71,18.51L172.93,163.1l38.13-55.79-46.91,49.36-45.16-51,36.24,57.21L93.52,190.8l65.08-17.59,5.4,67.2Zm-5.17-7.85-.09.25h-.26l-.09-.26.23-.17Z" transform="translate(-4.22)"/><path class="c" d="M160.71,136.13C176,135.22,190.39,145,191.88,161c1.42,15.18-10.21,29.47-24.79,30.84-15.88,1.5-30.34-9.75-31.05-25.67C135.35,150.67,144,138.69,160.71,136.13Z" transform="translate(-4.22)"/><path class="d" d="M166.25,183c-10.42.62-20.3-6.06-21.32-17-1-10.38,7-20.15,17-21.09,10.86-1,20.75,6.66,21.24,17.55C183.59,173.11,177.67,181.3,166.25,183Z" transform="translate(-4.22)"/></svg>